# xmcd CD database file
#
# Track frame offsets:
#        150
#        14437
#        25811
#        33614
#        49325
#        68013
#        80913
#        97077
#        116904
#        128088
#        142967
#        158831
#        172503
#        184040
#        195431
#        212879
#        222711
#        234125
#        247621
#        260411
#        276205
#
# Disc length: 3803 seconds
#
# Revision: 0
# Processed by: cddbd v1.5.2PL0 Copyright (c) Steve Scherf et al.
# Submitted via: CUERipper 2.1.7
#
DISCID=280ed915
DTITLE=Patti Page - On The Sentimental Side
DYEAR=2004
DGENRE=Traditional Pop/Country
TTITLE0=With My Eyes Wide Open I'm Dreaming
TTITLE1=Oklahoma Blues
TTITLE2=The One I Love (Belongs to Somebody Else)
TTITLE3=Do Nothing till You Hear From Me
TTITLE4=I'm in the Mood For Love
TTITLE5=Exactly Like You
TTITLE6=Whispering
TTITLE7=Come Rain or Come Shine
TTITLE8=I Don't Want to Set the World on Fire
TTITLE9=All of Me
TTITLE10=How Deep Is the Ocean?
TTITLE11=Harbour Lights
TTITLE12=You'd Be So Nice to Come Home To
TTITLE13=At Sundown
TTITLE14=You've Changed
TTITLE15=Goody Goody
TTITLE16=Wrap Your Troubles in Dreams (& Dream)
TTITLE17=Tormented
TTITLE18=Don't Blame Me
TTITLE19=It Started All Over Again
TTITLE20=It All Depends on You
EXTD=
EXTT0=
EXTT1=
EXTT2=
EXTT3=
EXTT4=
EXTT5=
EXTT6=
EXTT7=
EXTT8=
EXTT9=
EXTT10=
EXTT11=
EXTT12=
EXTT13=
EXTT14=
EXTT15=
EXTT16=
EXTT17=
EXTT18=
EXTT19=
EXTT20=
PLAYORDER=
